<?xml version="1.0" encoding="utf-8"?>
<!-- Generator: Adobe Illustrator 27.4.1, SVG Export Plug-In . SVG Version: 6.00 Build 0)  -->
<svg version="1.1" id="Layer_1" xmlns="http://www.w3.org/2000/svg" xmlns:xlink="http://www.w3.org/1999/xlink" x="0px" y="0px"
	 viewBox="0 0 482.3 84.7" style="enable-background:new 0 0 482.3 84.7;" xml:space="preserve">
<style type="text/css">
	.st0{fill:#0B1449;}
	.st1{fill:#073DFF;}
	.st2{fill:#1C1C1C;}
	.st3{fill:#231F20;}
</style>
<path class="st0" d="M157.1,43.6h-6.3V25.7l-11.7,17.9l-11.7-17.9v17.9h-6.1V6.4h0.1l17.8,27.2l17.7-27.2h0.2L157.1,43.6L157.1,43.6
	z"/>
<path class="st0" d="M194.9,19.9c1.4-1.7,3.9-3.1,7.8-3.1c7.1,0,12,5.8,12,13.7s-4.9,13.7-12,13.7c-2,0-7.8-0.6-10.5-0.6h-3.6V7.9
	l6.3-2L194.9,19.9L194.9,19.9z M201.3,38.6c4.1,0,7-3.2,7-8.2s-2.9-8.2-7-8.2c-3.1,0-5,1.7-6.4,3.9v12.1L201.3,38.6L201.3,38.6z"/>
<path class="st0" d="M58.1,20.3l0.3-3.1l5.6,2v24.3h-5.6l-0.3-3.1c-1.5,2-4.1,3.6-8.1,3.6c-7.2,0-12.1-5.8-12.1-13.7
	S42.8,16.7,50,16.7C54,16.7,56.7,18.3,58.1,20.3L58.1,20.3z M44.3,30.4c0,5,2.9,8.2,7,8.2c3.1,0,5-1.7,6.4-3.9v-8.5
	c-1.4-2.2-3.3-3.9-6.4-3.9C47.3,22.3,44.3,25.5,44.3,30.4L44.3,30.4z"/>
<path class="st0" d="M91.6,28.2v15.4h-6.3V28.6c0-3.5-2.1-5.9-5.3-5.9c-2.8,0-4.6,1.7-6,3.7v17.2h-6.3V17.2l5.7,2l0.3,1
	c1.5-1.9,4.1-3.6,7.9-3.6C88,16.7,91.6,21.3,91.6,28.2L91.6,28.2z"/>
<polygon class="st0" points="119.4,17.3 112.9,17.3 101.7,32.7 101.7,7.9 95.4,5.8 95.4,43.6 100.3,43.6 106.6,34.9 112.1,43.6 
	119.2,43.6 110.3,29.8 "/>
<path class="st0" d="M186.6,30.5c0,7.9-5.8,13.7-13.7,13.7s-13.7-5.8-13.7-13.7s5.8-13.8,13.7-13.8S186.6,22.5,186.6,30.5z
	 M165.6,30.5c0,4.7,3.1,8.1,7.3,8.1s7.4-3.4,7.4-8.1s-3.1-8.2-7.4-8.2S165.6,25.7,165.6,30.5z"/>
<path class="st0" d="M222.9,11.6c0,1.8-1.4,3.1-3.2,3.1s-3.1-1.3-3.1-3.1s1.4-3.1,3.1-3.1S222.9,9.8,222.9,11.6z"/>
<path class="st0" d="M232.9,43.6h-6.3V5.9l6.3-2V43.6z"/>
<path class="st0" d="M248,38.8c-4.4,0-6.5-2.3-6.7-6.6H260v-2.1c0-7.4-4-13.5-12.1-13.5c-7.6,0-13,5.8-13,13.8s4.8,13.7,13,13.7
	c4.9,0,8.1-1.6,10.5-4.8c0.5-0.7,0.8-1.1,1-1.4L254,36C252.7,37.6,250.9,38.8,248,38.8L248,38.8z M247.8,21.7c3.8,0,5.9,2.5,6,6.1
	h-12.5C241.5,24.2,244.1,21.7,247.8,21.7L247.8,21.7z"/>
<path class="st0" d="M222.8,43.6h-6.3V19.3l6.3-2V43.6z"/>
<path class="st0" d="M29.9,24.8l-0.1-0.1c1.9-1.1,4-3.5,4-7.3c0-6-4-9.7-11.5-9.7S8.7,8.3,8.7,8.3v5.2c2.1,0.9,4.2,1.8,6.1,2.6v-2.5
	c0,0,2.9-0.2,6.6-0.2s6.1,1.8,6.1,4.8c0,2-1.8,4.9-3.8,4.1c-1.2-0.5-12.7-5.4-21-8.9V19c9.9,4.2,24.9,10.6,25.7,10.9
	c1.8,0.9,2.1,2.3,2.1,3.4c0,3.4-2.6,5.2-6.6,5.2s-9.1-0.4-9.1-0.4V26.6c-2-0.8-4-1.7-6.1-2.6v19.3c0,0,9.2,0.8,15.9,0.8
	s12-3.8,12-10.4C36.6,28.6,33.7,26,29.9,24.8L29.9,24.8z"/>
<path class="st1" d="M56,73.5h2.4L62,57.7h-2.7l0.6-2.6h6.7c4,0,6.5,1.1,8.4,2.9c1.5,1.5,2.3,3.6,2.3,5.9c0,3.3-1.2,6-3.3,8.2
	c-2.6,2.6-6.3,3.8-10.8,3.8h-7.8C55.4,76,56,73.5,56,73.5z M63.6,73.5c3.7,0,6.2-1,8.1-2.9c1.8-1.8,2.5-4,2.5-6.4
	c0-1.7-0.6-3.3-1.6-4.4c-1.3-1.3-3.2-2.1-6.3-2.1h-1.4l-3.7,15.8H63.6L63.6,73.5z"/>
<path class="st1" d="M79.8,73.5c0-0.4,0.1-1,0.2-1.5l1.9-7.3h-2.6l0.6-2.3h5.4L82.8,72c-0.2,0.5-0.2,1.1-0.2,1.4
	c0,0.6,0.3,0.9,0.8,0.9c0.6,0,1.2-0.5,1.9-2.2l1.2,0.4c-0.8,2.7-2.2,3.7-3.9,3.7C80.8,76.3,79.8,75.2,79.8,73.5L79.8,73.5z
	 M82.5,58.2c0-1,0.8-1.8,1.8-1.8s1.9,0.8,1.9,1.8S85.3,60,84.3,60S82.5,59.2,82.5,58.2z"/>
<path class="st1" d="M89,74.6c-0.5-0.5-0.9-1.2-0.9-1.8c0-1,0.7-1.8,1.6-1.8s1.5,0.7,1.5,1.5c0,0.3-0.1,0.7-0.3,0.9
	c0.1,0.1,0.3,0.2,0.5,0.3c0.6,0.3,1.6,0.5,2.6,0.5c1.4,0,2.6-0.6,2.6-1.7s-1.4-1.7-2.9-2.4c-1.9-0.9-3.8-1.8-3.8-4s1.9-4.1,5.3-4.1
	c1.9,0,3.5,0.6,4.4,1.5c0.5,0.5,0.8,1.2,0.8,1.8c0,1.1-0.7,1.8-1.6,1.8s-1.6-0.7-1.6-1.5c0-0.3,0.1-0.5,0.3-0.9
	c-0.1-0.1-0.2-0.2-0.5-0.3c-0.5-0.2-1.1-0.3-1.8-0.3c-1.4,0-2.5,0.6-2.5,1.6c0,1.1,1.4,1.7,3,2.4c1.9,0.9,3.7,1.9,3.7,4
	c0,2.7-2.2,4.2-5.4,4.2C91.9,76.3,90,75.6,89,74.6L89,74.6z"/>
<path class="st1" d="M106.8,55.1h-2.6l0.6-2.3h5.2l-2.8,12.2c1.1-1.5,2.8-2.8,4.6-2.8c3.2,0,5,2.2,5,5.5c0,4.8-3.3,8.7-7.3,8.7
	c-2,0-3.8-1.3-4.2-3.2l-0.8,2.9H102L106.8,55.1L106.8,55.1z M114.1,68c0-2.1-1.1-3.5-3.1-3.5c-2.7,0-5,3-5,6c0,2,1.2,3.3,3.3,3.3
	C112,73.8,114.1,71,114.1,68z"/>
<path class="st1" d="M125.7,62.3l-2.1,8.3c-0.1,0.4-0.2,0.9-0.2,1.4c0,1.2,0.7,1.9,1.9,1.9c1.8,0,3.3-1.5,4-4.2l1.8-7.4h2.8
	l-2.4,9.7c-0.1,0.6-0.2,1.1-0.2,1.4c0,0.6,0.3,0.9,0.8,0.9c0.5,0,1.1-0.5,1.8-2.2l1.2,0.4c-0.8,2.7-2.3,3.7-3.8,3.7
	c-1.6,0-2.6-1.1-2.6-2.8v-0.3c-1.1,1.9-2.8,3.2-4.6,3.2c-1.9,0-3.6-1.4-3.6-3.6c0-0.7,0.1-1.5,0.3-2.3l1.5-5.7h-2.5l0.6-2.3
	L125.7,62.3L125.7,62.3z"/>
<path class="st1" d="M140.1,64.7h-2.6l0.6-2.3h4.9l-0.9,3.8c1.7-2.7,3.3-4.1,4.8-4.1c1.1,0,2,0.8,2,1.9s-0.9,1.9-1.9,1.9
	c-0.9,0-1.7-0.6-1.8-1.4c-1,0.4-2.9,2.4-3.7,5.3L140,76h-2.8L140.1,64.7L140.1,64.7z"/>
<path class="st1" d="M150,74.6c-0.5-0.5-0.9-1.2-0.9-1.8c0-1,0.7-1.8,1.6-1.8s1.5,0.7,1.5,1.5c0,0.3-0.1,0.7-0.3,0.9
	c0.1,0.1,0.3,0.2,0.5,0.3c0.6,0.3,1.6,0.5,2.6,0.5c1.4,0,2.6-0.6,2.6-1.7s-1.4-1.7-2.9-2.4c-1.9-0.9-3.8-1.8-3.8-4s1.9-4.1,5.3-4.1
	c1.9,0,3.5,0.6,4.4,1.5c0.5,0.5,0.8,1.2,0.8,1.8c0,1.1-0.7,1.8-1.6,1.8s-1.6-0.7-1.6-1.5c0-0.3,0.1-0.5,0.3-0.9
	c-0.1-0.1-0.2-0.2-0.5-0.3c-0.5-0.2-1.1-0.3-1.8-0.3c-1.4,0-2.5,0.6-2.5,1.6c0,1.1,1.4,1.7,3,2.4c1.9,0.9,3.7,1.9,3.7,4
	c0,2.7-2.2,4.2-5.4,4.2C152.9,76.3,151.1,75.6,150,74.6L150,74.6z"/>
<path class="st1" d="M166.1,70.1v0.5c0,2.1,1.6,3.4,4.1,3.4c1.5,0,2.8-0.3,4.5-1.2l-0.5,2.6c-1.4,0.7-2.6,0.9-4.6,0.9
	c-3.3,0-6.3-2.1-6.3-5.8c0-4.7,3.4-8.4,7.5-8.4c3.3,0,5.5,1.9,5.5,5.1c0,0.9-0.2,1.8-0.5,2.9C175.9,70.1,166.1,70.1,166.1,70.1z
	 M166.5,68.1h7.1c0.1-0.4,0.2-0.8,0.2-1.2c0-1.4-1-2.5-2.9-2.5S167.2,65.9,166.5,68.1L166.5,68.1z"/>
<path class="st1" d="M181.7,64.7h-2.6l0.6-2.3h4.9l-0.8,3.2c1.1-1.9,2.8-3.4,4.6-3.4c2,0,3.3,1.3,3.5,3.4c1.2-2.1,3-3.4,4.6-3.4
	c2,0,3.6,1.4,3.6,3.9c0,0.7-0.1,1.4-0.4,2.2l-1.2,4c-0.1,0.4-0.2,0.9-0.2,1.1c0,0.6,0.3,1,0.9,1s1.1-0.5,1.8-2.2l1.2,0.4
	c-0.7,2.5-2,3.7-3.7,3.7c-1.9,0-2.9-1.2-2.9-2.7c0-0.4,0.1-1.1,0.2-1.6l1.1-4c0.2-0.6,0.3-1.1,0.3-1.5c0-1.2-0.8-2-1.9-2
	c-1.6,0-3.1,1.5-3.9,4.4l-1.8,7.2h-2.8L189,68c0.1-0.6,0.2-1.2,0.2-1.6c0-1.1-0.8-1.9-1.9-1.9c-1.6,0-3.2,1.5-3.9,4.3l-1.8,7.3h-2.8
	L181.7,64.7L181.7,64.7z"/>
<path class="st1" d="M206.9,70.1v0.5c0,2.1,1.7,3.4,4.1,3.4c1.5,0,2.8-0.3,4.5-1.2l-0.5,2.6c-1.4,0.7-2.6,0.9-4.5,0.9
	c-3.3,0-6.3-2.1-6.3-5.8c0-4.7,3.4-8.4,7.5-8.4c3.3,0,5.5,1.9,5.5,5.1c0,0.9-0.2,1.8-0.5,2.9L206.9,70.1L206.9,70.1z M207.3,68.1
	h7.1c0.1-0.4,0.2-0.8,0.2-1.2c0-1.4-1-2.5-2.9-2.5S208,65.9,207.3,68.1z"/>
<path class="st1" d="M228.7,73.5c0-0.4,0.1-1.1,0.2-1.6l1.2-4.1c0.2-0.5,0.2-0.9,0.2-1.4c0-1.2-0.8-2-2.1-2c-1.7,0-3.3,1.4-4,4.2
	l-1.9,7.4h-2.8l2.9-11.4h-2.5l0.6-2.3h4.9l-0.7,3.2c1.1-1.9,2.9-3.4,4.7-3.4c2.1,0,3.7,1.4,3.7,3.9c0,0.7-0.1,1.4-0.4,2.2l-1.2,4
	c-0.1,0.4-0.2,0.9-0.2,1.1c0,0.6,0.3,1,0.9,1s1.1-0.5,1.8-2.2l1.2,0.4c-0.7,2.5-2,3.7-3.7,3.7C229.7,76.3,228.7,75.1,228.7,73.5
	L228.7,73.5z"/>
<path class="st1" d="M242.7,64.7l-1.8,7c-0.1,0.5-0.2,0.9-0.2,1.2c0,0.8,0.5,1.2,1.1,1.2c0.7,0,1.4-0.3,2.7-1.2l1,1.3
	c-1.8,1.6-3.3,2-4.6,2c-1.7,0-3-0.9-3-2.9c0-0.5,0.1-1,0.2-1.7l1.8-7h-2.5l0.5-2.3h2.5l0.8-3.1l3-1.1l-1,4.2h4.2l-0.6,2.3
	L242.7,64.7L242.7,64.7z"/>
<path class="st1" d="M248.6,74.6c-0.5-0.5-0.9-1.2-0.9-1.8c0-1,0.7-1.8,1.6-1.8s1.5,0.7,1.5,1.5c0,0.3-0.1,0.7-0.3,0.9
	c0.1,0.1,0.3,0.2,0.5,0.3c0.6,0.3,1.6,0.5,2.5,0.5c1.4,0,2.6-0.6,2.6-1.7s-1.4-1.7-2.9-2.4c-1.9-0.9-3.8-1.8-3.8-4s1.9-4.1,5.3-4.1
	c1.9,0,3.5,0.6,4.4,1.5c0.5,0.5,0.8,1.2,0.8,1.8c0,1.1-0.7,1.8-1.6,1.8s-1.6-0.7-1.6-1.5c0-0.3,0.1-0.5,0.3-0.9
	c-0.1-0.1-0.2-0.2-0.5-0.3c-0.5-0.2-1.1-0.3-1.8-0.3c-1.4,0-2.5,0.6-2.5,1.6c0,1.1,1.4,1.7,3,2.4c1.9,0.9,3.7,1.9,3.7,4
	c0,2.7-2.2,4.2-5.4,4.2C251.4,76.3,249.6,75.6,248.6,74.6L248.6,74.6z"/>
<path class="st2" d="M329.4,4.2h-6.5v17.3h2.1v-6.8h4.4c1.5,0,2.8-0.5,3.8-1.3c1-0.9,1.5-2.2,1.5-3.9s-0.5-3-1.5-3.9
	C332.2,4.6,331,4.2,329.4,4.2L329.4,4.2z M325.1,6.2h4.2c2,0,3.3,1.2,3.3,3.2s-1.3,3.2-3.3,3.2h-4.2C325.1,12.7,325.1,6.2,325.1,6.2
	z"/>
<path class="st2" d="M350.8,6.4c-1.6-1.6-3.7-2.4-6.1-2.4s-4.5,0.8-6.1,2.4c-1.6,1.6-2.4,3.8-2.4,6.4s0.8,4.8,2.4,6.4
	c1.6,1.6,3.7,2.4,6.1,2.4s4.5-0.8,6.1-2.4c1.6-1.6,2.4-3.8,2.4-6.4S352.5,8,350.8,6.4L350.8,6.4L350.8,6.4z M340.2,7.8
	c1.2-1.2,2.8-1.8,4.6-1.8s3.3,0.6,4.5,1.8c1.2,1.2,1.8,2.9,1.8,5s-0.6,3.8-1.8,5c-1.2,1.2-2.7,1.8-4.5,1.8s-3.4-0.6-4.6-1.8
	c-1.2-1.2-1.8-2.9-1.8-5S339,9,340.2,7.8L340.2,7.8z"/>
<polygon class="st2" points="371.5,17.5 367,4.2 365.3,4.2 360.7,17.5 356.1,4.2 353.8,4.2 359.9,21.5 361.6,21.5 366.1,8.3 
	370.7,21.5 372.4,21.5 378.4,4.2 376.1,4.2 "/>
<polygon class="st2" points="380.1,21.5 390.9,21.5 390.9,19.4 382.3,19.4 382.3,13.5 390,13.5 390,11.5 382.3,11.5 382.3,6.2 
	390.9,6.2 390.9,4.2 380.1,4.2 "/>
<path class="st2" d="M404.8,9.3c0-1.7-0.5-2.9-1.5-3.8c-1-0.9-2.3-1.3-3.8-1.3H393v17.3h2.2v-6.9h4.3h0.1l3.9,6.9h2.4l-4.1-7.4
	C403.7,13.3,404.8,11.6,404.8,9.3L404.8,9.3z M395.2,6.2h4.1c2.1,0,3.3,1.2,3.3,3.2s-1.2,3.2-3.3,3.2h-4.1V6.2L395.2,6.2z"/>
<polygon class="st2" points="407.9,21.5 418.7,21.5 418.7,19.4 410,19.4 410,13.5 417.7,13.5 417.7,11.5 410,11.5 410,6.2 
	418.7,6.2 418.7,4.2 407.9,4.2 "/>
<path class="st2" d="M427.4,4.2h-6.7v17.3h6.6c2.4,0,4.4-0.8,5.9-2.3c1.6-1.6,2.3-3.7,2.3-6.3s-0.8-4.8-2.3-6.3
	C431.8,5,429.8,4.2,427.4,4.2L427.4,4.2z M427.4,19.5h-4.5V6.1h4.5c1.8,0,3.3,0.6,4.4,1.7c1.1,1.2,1.7,2.8,1.7,4.9s-0.6,3.8-1.7,4.9
	C430.7,18.9,429.2,19.5,427.4,19.5L427.4,19.5z"/>
<path class="st2" d="M453.6,12.5c1-0.8,1.4-2,1.4-3.6c0-2.9-2-4.7-5.2-4.7h-6.2v17.3h6.8c1.5,0,2.8-0.4,3.8-1.2
	c1-0.8,1.5-2.1,1.5-3.7C455.8,14.8,455,13.2,453.6,12.5z M445.8,11.6V6.2h3.9c2,0,3.2,1,3.2,2.8s-0.8,2.7-2.5,2.7H445.8z
	 M453.6,16.5c0,2.5-2.1,2.9-3.3,2.9h-4.5v-5.8h4.7C452.5,13.6,453.6,14.7,453.6,16.5z"/>
<polygon class="st2" points="468.9,4.2 463.8,11.9 458.7,4.2 456.1,4.2 462.7,14.1 462.7,21.5 464.8,21.5 464.8,14.1 471.4,4.2 "/>
<path class="st3" d="M323.4,32.9h21.7c4.7,0,8.1,1.1,10.5,3.1c2.6,2.1,3.9,5,3.9,8.6c0,4.5-2.3,7.3-6.3,8.8v0.2
	c4.9,1.5,8.1,5.7,8.1,11c0,4.5-1.6,7.8-4.6,10.1c-2.6,2.1-6.4,3.2-11.1,3.2h-22.2L323.4,32.9L323.4,32.9z M343.5,50.8
	c3.2,0,5.4-1.6,5.4-4.5s-2.1-4.5-5.4-4.5h-9.1v9H343.5L343.5,50.8z M344.4,69c3.6,0,5.9-2.1,5.9-5.3c0-3.6-2.6-5.4-6-5.4h-9.8V69
	H344.4L344.4,69z"/>
<path class="st3" d="M364.3,45.7h9.8v4.6h0.2c2-3.3,5.1-5.5,9.8-5.5c4.2,0,7.4,2.2,9.1,5.7h0.1c2.5-3.9,6-5.7,10.1-5.7
	c7.3,0,11,5,11,12.2v21h-10.3V58.8c0-3.5-1.5-5.5-4.5-5.5c-3.3,0-5.1,2.7-5.1,6.6V78h-10.3V58.8c0-3.5-1.5-5.5-4.5-5.5
	s-5.1,2.7-5.1,6.6V78h-10.3C364.3,78,364.3,45.7,364.3,45.7z"/>
<path class="st3" d="M420.3,69.5V52.1h-4.6v-6.4h4.6v-7.5h10v7.5h5.9v6.4h-5.9v15.1c0,2.5,1.4,3.2,3.6,3.2c0.9,0,1.9-0.1,2.3-0.1
	v7.5c-0.9,0.2-2.8,0.5-5.6,0.5C424.6,78.4,420.3,76.4,420.3,69.5z"/>
<path class="st3" d="M449.3,61l-10.1-15.3h11.7l4.8,8.3h0.1l4.5-8.3h10.8l-9.6,15.2l11,17.1h-11.9l-5.3-9.6h-0.1l-5.9,9.6h-11.2
	L449.3,61L449.3,61z"/>
<rect x="286.1" y="3.8" width="2.4" height="72.5"/>
</svg>
