<svg xmlns="http://www.w3.org/2000/svg" width="24" height="24" viewBox="0 0 24 24" fill="none">
	<circle cx="12" cy="12" r="12" fill="#1C1C1C"/>
	<path d="M17.7799 13.0208L17.7199 13.0934L12.8256 18.5312C12.7999 18.5609 12.7726 18.5892 12.7439 18.616L12.7154 18.6418L12.6746 18.6757L12.6631 18.6844C12.6547 18.6909 12.6462 18.6972 12.6376 18.7034L12.6162 18.7186L12.6063 18.7252C12.5964 18.7318 12.5864 18.7382 12.5763 18.7445L12.5551 18.7575L12.5421 18.765C12.5264 18.7741 12.5104 18.7827 12.4942 18.791L12.4756 18.8002L12.4693 18.8032C12.4571 18.809 12.4448 18.8146 12.4324 18.82L12.4095 18.8296L12.4019 18.8326C12.3255 18.8629 12.2449 18.8849 12.1611 18.8973L12.1546 18.8982L12.0892 18.9054L11.9996 18.9091L11.9108 18.9055L11.8719 18.9016C11.8563 18.8998 11.8407 18.8977 11.8253 18.8952L11.8207 18.8944L11.7632 18.8833L11.7006 18.8674L11.6845 18.8628C11.6691 18.8581 11.6538 18.8531 11.6386 18.8478L11.6114 18.8378L11.6018 18.8341C11.5857 18.8278 11.5699 18.8212 11.5542 18.8142L11.5243 18.8002L11.5192 18.7977C11.4925 18.7846 11.4664 18.7704 11.441 18.7552L11.4276 18.7471L11.408 18.7347C11.3858 18.7203 11.3641 18.7051 11.3431 18.6893L11.3253 18.6757L11.319 18.6705C11.274 18.6345 11.2319 18.5951 11.1932 18.5525L11.1891 18.548L6.27999 13.0934C5.87694 12.6456 5.91324 11.9558 6.36107 11.5528C6.78533 11.1709 7.42673 11.1834 7.83577 11.5666L7.90172 11.6339L10.909 14.9742L10.909 9.09091C10.909 8.48842 11.3974 8 11.9999 8C12.575 8 13.0462 8.44502 13.0878 9.00949L13.0908 9.09091L13.0909 14.9753L16.0982 11.6339C16.5012 11.186 17.191 11.1497 17.6388 11.5528C18.0631 11.9346 18.118 12.5738 17.7799 13.0208Z" fill="white"/>
	<circle cx="12" cy="6" r="1" fill="white"/>
</svg>
